{"glyphs":{"\u0000":{"ha":0,"x_min":0,"x_max":0,"o":""},"\r":{"ha":347,"x_min":0,"x_max":0,"o":""}," ":{"ha":347,"x_min":0,"x_max":0,"o":""},"A":{"ha":1157,"x_min":142,"x_max":1143,"o":"m 1008 113 q 1042 65 1022 83 q 1081 38 1063 47 q 1114 24 1100 28 q 1132 21 1128 21 q 1142 10 1142 21 q 1132 0 1143 0 l 825 0 q 814 10 814 0 q 825 21 814 21 q 839 24 828 21 q 860 35 850 26 q 874 58 869 43 q 867 96 878 72 l 707 443 q 597 438 646 443 q 509 414 549 432 q 438 363 469 396 q 379 272 406 329 l 285 74 q 282 53 279 63 q 292 36 285 43 q 309 26 299 29 q 329 22 319 22 q 340 12 340 22 q 329 1 340 1 l 151 1 q 147 12 142 1 q 161 22 151 22 q 177 24 164 22 q 207 33 190 26 q 239 49 224 39 q 263 76 254 60 l 586 765 q 616 824 604 803 q 639 844 628 844 q 694 767 658 844 l 1008 113 m 586 713 l 432 386 q 482 426 450 411 q 551 450 514 442 q 628 461 589 458 q 697 464 667 464 l 586 713 z "},"B":{"ha":721,"x_min":14,"x_max":711,"o":"m 25 0 q 17 10 18 0 q 25 21 17 21 q 47 29 38 21 q 62 49 56 38 q 72 72 68 60 q 75 93 75 85 l 75 764 q 60 840 75 817 q 25 864 46 864 q 15 874 15 864 q 25 885 14 885 l 268 883 q 474 863 390 883 q 603 812 558 843 q 657 743 649 781 q 637 669 665 706 q 544 603 608 633 q 379 557 479 574 q 568 501 494 546 q 676 394 642 456 q 706 263 711 332 q 659 135 701 193 q 538 38 617 76 q 342 0 458 0 l 25 0 m 274 569 q 414 591 357 569 q 501 646 471 613 q 533 717 531 679 q 508 788 535 754 q 422 842 481 821 q 274 864 364 864 q 213 846 226 864 q 200 779 200 828 l 200 569 l 274 569 m 200 85 q 219 45 200 58 q 263 26 238 32 q 313 22 288 21 q 350 22 338 22 q 490 61 436 22 q 565 158 543 100 q 580 285 588 217 q 535 413 572 354 q 432 510 497 471 q 274 549 367 549 l 200 549 l 200 85 z "},"C":{"ha":913,"x_min":19,"x_max":881,"o":"m 146 453 q 181 261 149 340 q 267 131 214 182 q 385 57 319 81 q 519 33 451 33 q 644 53 583 33 q 751 108 704 72 q 828 196 799 144 q 860 311 858 247 q 871 332 863 332 q 881 311 881 332 q 849 178 881 236 q 763 82 817 121 q 640 23 710 43 q 494 3 569 3 q 323 30 408 3 q 169 113 238 57 q 60 254 101 169 q 21 456 19 339 q 59 613 22 536 q 159 751 96 690 q 308 850 222 813 q 492 888 393 888 q 676 858 592 888 q 808 775 760 829 q 859 664 854 722 q 853 542 864 606 q 842 531 850 532 q 832 542 835 531 q 795 647 824 592 q 722 751 767 703 q 622 831 678 799 q 500 864 565 863 q 344 830 411 865 q 233 736 278 794 q 166 603 188 678 q 146 453 144 529 z "},"D":{"ha":890,"x_min":0,"x_max":871,"o":"m 8 1 q 1 12 0 1 q 8 22 1 22 q 44 40 29 22 q 58 76 58 58 l 58 806 q 44 850 58 833 q 8 868 29 867 q 0 878 0 868 q 8 889 0 889 l 233 889 q 510 851 392 889 q 709 750 629 813 q 829 608 789 688 q 870 445 869 528 q 831 283 871 363 q 713 140 792 203 q 513 40 633 78 q 233 1 393 1 l 8 1 m 233 25 q 458 60 363 25 q 618 153 554 94 q 713 286 682 211 q 744 440 744 361 q 712 593 744 518 q 615 728 679 668 q 456 825 551 788 q 233 865 360 863 q 202 865 213 865 q 188 860 192 865 q 183 841 183 854 q 183 804 183 828 l 183 90 q 192 44 183 63 q 233 25 200 25 z "},"E":{"ha":710,"x_min":14,"x_max":694,"o":"m 200 76 q 228 33 200 44 q 294 22 256 22 q 423 22 357 22 q 543 31 489 22 q 633 61 597 40 q 674 124 669 82 q 685 131 675 132 q 694 119 694 131 l 694 54 q 683 13 694 26 q 624 0 672 0 l 25 0 q 15 10 15 0 q 25 21 14 21 q 60 41 46 21 q 75 79 75 61 l 75 797 q 60 843 75 818 q 25 868 46 868 q 14 878 14 868 q 25 889 14 889 l 615 889 q 664 885 647 889 q 688 871 681 882 q 694 839 694 860 q 694 783 694 818 q 685 771 694 771 q 674 783 675 771 q 636 837 672 819 q 545 861 600 854 q 424 867 490 868 q 294 867 357 867 q 256 865 274 867 q 226 859 239 864 q 207 844 214 854 q 200 817 200 835 l 200 558 q 207 508 200 526 q 231 482 214 490 q 278 472 249 474 q 354 469 308 469 q 420 474 389 469 q 476 490 451 479 q 515 517 500 500 q 529 558 529 535 q 540 567 529 567 q 550 558 550 567 l 550 363 q 540 351 550 351 q 529 363 529 351 q 515 403 529 388 q 476 430 500 419 q 420 444 451 440 q 354 449 389 449 q 279 447 308 449 q 232 436 250 444 q 207 413 214 428 q 200 374 200 399 l 200 76 z "},"F":{"ha":735,"x_min":14,"x_max":721,"o":"m 201 85 q 217 42 201 63 q 251 21 232 21 q 258 10 258 21 q 251 0 257 0 l 26 0 q 19 10 18 0 q 26 21 19 21 q 60 39 44 21 q 75 85 75 57 l 75 797 q 60 839 75 818 q 25 860 46 860 q 14 874 14 860 q 25 889 14 889 l 585 889 q 639 888 614 889 q 682 883 664 888 q 710 869 700 879 q 721 843 721 860 l 721 783 q 710 771 721 771 q 697 783 699 771 q 656 837 696 819 q 558 861 617 854 q 428 867 499 868 q 296 867 358 867 q 258 865 275 867 q 228 859 240 864 q 208 844 215 854 q 201 817 201 835 l 201 558 q 208 509 201 526 q 233 483 215 492 q 280 474 250 475 q 356 472 310 472 q 465 491 425 472 q 504 558 504 510 q 514 567 504 567 q 524 558 524 567 l 524 363 q 514 351 524 351 q 504 363 504 351 q 465 431 504 411 q 356 451 425 451 q 281 449 310 451 q 233 438 251 446 q 208 414 215 429 q 201 374 201 399 l 201 85 z "},"G":{"ha":829,"x_min":11,"x_max":815,"o":"m 456 864 q 314 830 374 865 q 217 731 254 794 q 163 582 179 668 q 150 396 146 496 q 181 211 154 286 q 250 90 208 136 q 343 23 292 43 q 446 3 394 3 q 535 17 492 3 q 613 58 579 32 q 668 117 647 83 q 690 190 689 151 q 689 231 690 210 q 681 268 688 251 q 661 295 675 285 q 624 306 647 306 q 571 294 604 306 q 556 299 563 292 q 560 311 550 307 q 676 353 618 332 q 793 396 735 374 q 810 398 806 400 q 814 389 814 396 l 814 350 l 815 256 l 815 217 q 785 119 815 163 q 706 44 756 75 q 592 -4 657 13 q 458 -21 528 -21 q 303 2 381 -21 q 164 75 226 25 q 60 204 101 125 q 15 396 19 283 q 37 588 11 499 q 117 744 63 678 q 254 847 171 810 q 447 885 338 885 q 624 855 547 885 q 750 771 701 825 q 784 717 774 744 q 798 663 794 690 q 799 604 801 635 q 794 542 797 574 q 783 525 793 525 q 772 542 775 525 q 741 656 767 599 q 674 760 715 714 q 576 834 632 806 q 456 864 521 863 z "},"H":{"ha":851,"x_min":22,"x_max":832,"o":"m 206 85 q 221 42 206 63 q 256 21 236 21 q 262 10 263 21 q 256 0 261 0 l 31 0 q 23 10 22 0 q 31 21 24 21 q 64 39 49 21 q 79 85 79 57 l 79 799 q 64 844 79 826 q 31 863 49 863 q 23 873 24 863 q 31 883 22 883 l 256 883 q 262 873 261 883 q 256 863 263 863 q 221 842 236 863 q 206 799 206 822 l 206 354 q 247 406 206 371 q 351 475 288 440 q 494 536 415 510 q 649 564 574 563 l 649 799 q 633 844 649 826 q 600 863 618 863 q 592 873 593 863 q 600 883 592 883 l 825 883 q 831 873 831 883 q 825 863 832 863 q 790 842 806 863 q 775 799 775 822 l 775 85 q 790 42 775 63 q 825 21 806 21 q 831 10 832 21 q 825 0 831 0 l 600 0 q 592 10 592 0 q 600 21 593 21 q 633 39 618 21 q 649 85 649 57 l 649 543 q 569 532 615 542 q 474 506 524 522 q 377 465 425 489 q 291 410 329 440 q 229 343 253 379 q 206 267 206 307 l 206 85 z "},"I":{"ha":282,"x_min":22,"x_max":263,"o":"m 78 804 q 62 845 78 826 q 31 864 46 864 q 23 874 24 864 q 31 885 22 885 l 256 885 q 262 874 261 885 q 256 864 263 864 q 221 844 236 864 q 206 800 206 824 l 206 85 q 221 42 206 63 q 256 21 236 21 q 262 10 263 21 q 256 0 261 0 l 31 0 q 23 10 22 0 q 31 21 24 21 q 62 40 46 21 q 78 81 78 58 l 78 804 z "},"J":{"ha":439,"x_min":4,"x_max":433,"o":"m 24 -204 q 4 -192 4 -204 q 24 -176 4 -179 q 92 -164 53 -172 q 165 -128 131 -156 q 224 -48 200 -101 q 249 100 249 6 l 249 804 q 233 845 249 826 q 201 864 217 864 q 194 874 194 864 q 201 885 193 885 l 426 885 q 433 874 432 885 q 426 864 433 864 q 392 844 407 864 q 376 800 376 824 q 376 451 376 624 q 375 101 375 278 q 340 -42 375 17 q 251 -135 304 -100 q 136 -187 197 -171 q 24 -204 75 -203 z "},"K":{"ha":958,"x_min":22,"x_max":938,"o":"m 78 804 q 62 845 78 826 q 31 864 46 864 q 23 874 24 864 q 31 885 22 885 l 256 885 q 262 874 261 885 q 256 864 263 864 q 221 844 236 864 q 206 800 206 824 l 206 497 l 597 768 q 633 809 631 792 q 626 838 636 826 q 601 856 615 850 q 583 863 586 863 q 576 874 576 864 q 583 883 576 883 l 825 881 q 833 871 833 881 q 825 860 833 861 q 788 851 811 860 q 735 829 764 843 q 672 796 706 815 q 606 751 639 776 l 294 529 l 710 160 q 798 90 758 117 q 866 47 838 63 q 911 26 894 32 q 932 21 928 21 q 937 14 938 21 q 918 0 936 7 q 883 -10 904 -6 q 835 -14 863 -14 q 731 5 789 -14 q 614 79 674 24 l 206 457 l 206 85 q 221 42 206 63 q 256 21 236 21 q 262 10 263 21 q 256 0 261 0 l 31 0 q 23 10 22 0 q 31 21 24 21 q 62 40 46 21 q 78 81 78 58 l 78 804 z "},"L":{"ha":778,"x_min":14,"x_max":758,"o":"m 197 85 q 222 34 197 46 q 278 22 246 22 q 369 22 319 22 q 469 22 418 21 q 567 28 519 24 q 651 41 614 32 q 710 66 688 50 q 735 107 733 82 q 747 114 735 114 q 758 107 758 114 l 758 58 q 756 26 758 38 q 747 8 754 14 q 726 1 739 3 q 690 0 713 0 l 22 0 q 15 10 14 0 q 22 21 15 21 q 53 40 38 21 q 69 81 69 58 l 69 804 q 53 845 69 826 q 22 864 38 864 q 15 874 15 864 q 22 885 14 885 l 247 885 q 253 874 253 885 q 247 864 254 864 q 213 844 228 864 q 197 800 197 824 l 197 85 z "},"M":{"ha":1128,"x_min":15,"x_max":1113,"o":"m 622 63 q 550 -3 594 -3 q 497 22 524 -3 q 447 100 471 47 l 135 833 l 135 364 q 147 166 135 236 q 176 63 160 96 q 208 25 192 31 q 235 19 225 19 q 241 9 242 19 q 235 -1 240 -1 l 24 -1 q 16 9 15 -1 q 24 19 17 19 q 47 24 32 19 q 77 54 63 29 q 103 133 92 79 q 114 286 114 188 l 114 826 q 101 860 114 856 q 85 865 89 865 q 75 876 75 865 q 85 888 75 888 q 140 890 111 888 q 194 888 168 892 q 242 872 221 885 q 276 829 264 860 l 581 110 q 600 89 589 89 q 617 108 610 89 l 919 829 q 949 876 933 863 q 986 894 965 890 q 1034 896 1007 899 q 1097 893 1061 893 q 1113 882 1113 893 q 1097 871 1113 871 q 1070 850 1079 871 q 1057 800 1061 829 q 1053 740 1053 771 q 1053 686 1053 708 l 1053 117 q 1069 45 1053 68 q 1106 22 1086 22 q 1112 12 1113 22 q 1106 1 1111 1 l 878 0 q 870 10 869 0 q 878 21 871 21 q 913 44 893 21 q 932 114 932 67 l 932 794 l 622 63 z "},"N":{"ha":885,"x_min":19,"x_max":871,"o":"m 160 897 q 205 884 183 897 q 244 852 226 871 q 276 815 263 833 q 297 783 289 796 l 744 126 l 744 532 q 733 730 744 660 q 708 833 722 800 q 677 871 693 865 q 653 876 661 876 q 645 887 646 876 q 653 897 644 897 l 864 897 q 870 887 869 897 q 864 876 871 876 q 838 871 854 876 q 805 833 821 865 q 777 730 789 800 q 765 532 765 660 l 765 156 q 784 51 765 81 q 824 21 803 21 q 831 10 831 21 q 824 0 831 0 l 742 0 q 692 13 715 0 q 649 45 668 26 q 615 83 629 64 q 592 114 600 103 l 140 771 l 140 367 q 152 169 140 239 q 180 66 164 99 q 213 28 196 33 q 239 22 229 22 q 245 12 246 22 q 239 1 244 1 l 28 1 q 20 12 19 1 q 28 22 21 22 q 52 28 36 22 q 83 67 68 35 q 108 169 97 100 q 119 367 119 239 l 119 742 q 112 805 119 779 q 92 847 104 831 q 68 869 81 863 q 44 876 56 876 q 38 887 38 876 q 44 897 38 897 l 160 897 z "},"O":{"ha":831,"x_min":15,"x_max":817,"o":"m 414 0 q 239 38 314 0 q 114 139 164 76 q 40 281 64 201 q 15 443 15 360 q 40 606 15 526 q 115 747 65 685 q 240 848 165 810 q 414 886 314 886 q 590 848 515 886 q 716 747 665 810 q 792 606 767 685 q 816 443 817 526 q 790 281 815 360 q 715 139 765 201 q 590 38 665 76 q 414 0 514 0 m 414 865 q 290 829 343 865 q 201 733 236 793 q 148 598 165 674 q 131 443 131 522 q 149 288 132 364 q 202 153 167 213 q 291 57 238 93 q 414 21 344 21 q 547 57 492 21 q 638 153 603 93 q 689 288 674 213 q 701 443 704 364 q 678 598 699 522 q 622 733 658 674 q 533 829 585 793 q 414 865 481 865 z "},"P":{"ha":710,"x_min":14,"x_max":707,"o":"m 69 804 q 53 845 69 826 q 22 864 38 864 q 15 874 15 864 q 22 885 14 885 l 299 885 q 543 842 451 885 q 671 734 635 799 q 690 595 707 669 q 611 457 674 521 q 444 352 549 393 q 197 314 339 311 l 197 85 q 213 42 197 63 q 247 21 228 21 q 253 10 254 21 q 247 0 253 0 l 22 0 q 15 10 14 0 q 22 21 15 21 q 53 40 38 21 q 69 81 69 58 l 69 804 m 197 335 q 384 374 306 335 q 508 471 463 413 q 565 598 553 529 q 552 725 576 667 q 465 823 528 783 q 299 863 401 863 q 263 863 281 863 q 230 857 244 863 q 206 838 215 851 q 197 800 197 825 l 197 335 z "},"Q":{"ha":876,"x_min":11,"x_max":864,"o":"m 168 -90 q 244 -24 196 -51 q 353 18 293 3 q 199 75 264 31 q 92 183 135 119 q 31 326 50 247 q 15 483 11 404 q 47 638 19 563 q 123 771 74 713 q 245 865 172 829 q 414 900 318 900 q 619 847 535 900 q 751 710 703 793 q 811 526 799 628 q 801 330 824 425 q 719 157 778 235 q 565 42 660 79 q 668 31 619 40 q 756 3 717 21 q 819 -38 794 -14 q 847 -93 843 -62 l 861 -196 q 853 -208 864 -207 q 840 -199 843 -208 q 792 -131 828 -161 q 703 -78 756 -100 q 589 -43 651 -56 q 463 -31 526 -31 q 311 -51 383 -31 q 190 -121 239 -72 q 174 -129 182 -129 q 160 -116 163 -129 q 168 -90 158 -103 m 414 878 q 290 842 343 878 q 201 746 236 806 q 148 610 165 686 q 131 456 131 535 q 149 302 132 378 q 202 167 167 226 q 291 71 238 107 q 414 35 344 35 q 547 71 492 35 q 638 167 603 107 q 689 302 674 226 q 701 456 704 378 q 678 610 699 535 q 622 746 658 686 q 533 842 585 806 q 414 878 481 878 z "},"R":{"ha":851,"x_min":14,"x_max":846,"o":"m 69 804 q 53 845 69 826 q 22 864 38 864 q 15 874 15 864 q 22 885 14 885 l 299 885 q 516 852 431 885 q 646 769 601 819 q 694 656 690 718 q 667 533 699 593 q 571 421 636 472 q 411 340 506 369 l 618 174 q 776 64 719 93 q 840 35 833 35 q 845 28 846 35 q 826 14 844 21 q 794 5 814 8 q 747 1 774 1 q 643 20 701 1 q 522 93 585 39 q 393 209 440 165 q 315 276 346 253 q 259 306 283 299 q 197 314 235 314 l 197 85 q 213 42 197 63 q 247 21 228 21 q 253 10 254 21 q 247 0 253 0 l 22 0 q 15 10 14 0 q 22 21 15 21 q 53 40 38 21 q 69 81 69 58 l 69 804 m 197 333 q 384 372 306 333 q 508 469 463 411 q 565 597 553 528 q 552 724 576 665 q 465 823 528 783 q 299 863 401 863 q 263 863 281 863 q 230 857 244 863 q 206 838 215 851 q 197 800 197 825 l 197 333 z "},"S":{"ha":890,"x_min":14,"x_max":875,"o":"m 129 71 q 78 119 94 94 q 55 173 61 144 q 49 234 49 201 q 50 306 50 267 q 63 328 50 328 q 81 306 75 328 q 142 174 104 228 q 227 86 179 119 q 328 38 275 53 q 436 22 382 22 q 569 43 506 22 q 678 99 632 64 q 748 180 725 135 q 758 274 771 225 q 713 331 750 308 q 623 368 676 353 q 504 396 569 383 q 372 422 439 408 q 240 453 304 435 q 127 499 176 471 q 47 567 78 526 q 15 667 17 608 q 50 765 14 724 q 144 833 86 806 q 277 873 203 860 q 428 888 351 886 q 527 885 478 889 q 620 872 576 881 q 701 849 664 864 q 765 815 739 835 q 814 763 799 790 q 834 706 829 735 q 835 649 839 678 q 824 594 831 621 q 808 582 822 582 q 794 594 797 582 q 752 717 789 665 q 662 803 715 769 q 546 852 608 836 q 428 867 483 868 q 307 850 365 865 q 206 808 249 835 q 142 744 164 781 q 132 661 121 707 q 176 608 140 628 q 266 576 213 589 q 385 554 319 563 q 518 534 450 546 q 650 505 586 522 q 763 458 714 488 q 843 383 813 428 q 875 271 874 338 q 837 157 875 208 q 735 69 799 106 q 590 11 671 32 q 422 -10 508 -10 q 267 10 343 -10 q 129 71 192 29 z "},"T":{"ha":879,"x_min":14,"x_max":865,"o":"m 14 839 q 25 877 14 864 q 72 890 36 890 l 813 890 q 850 881 835 890 q 865 840 865 872 l 865 715 q 856 704 865 704 q 844 715 846 704 q 812 788 840 758 q 745 835 783 817 q 665 863 707 854 q 592 871 624 871 q 508 842 528 871 q 488 749 488 813 l 488 85 q 503 42 488 63 q 538 21 518 21 q 544 10 544 21 q 538 0 543 0 l 313 0 q 305 10 304 0 q 313 21 306 21 q 344 40 328 21 q 360 81 360 58 l 360 749 q 341 837 360 804 q 264 869 322 869 q 199 861 236 869 q 126 835 161 853 q 66 788 92 817 q 35 715 40 758 q 24 703 33 703 q 14 715 14 703 l 14 839 z "},"U":{"ha":867,"x_min":15,"x_max":853,"o":"m 746 238 q 717 133 746 178 q 640 57 688 88 q 533 11 593 26 q 410 -4 472 -4 q 291 10 349 -4 q 188 54 233 25 q 115 127 143 83 q 88 229 88 171 l 88 782 q 67 844 88 821 q 26 868 47 868 q 15 878 15 868 q 26 889 15 889 l 261 889 q 269 878 268 889 q 261 868 269 868 q 222 844 240 868 q 203 782 203 821 l 203 250 q 224 149 203 192 q 278 80 244 107 q 356 40 313 53 q 446 26 400 26 q 544 41 496 26 q 630 83 592 56 q 692 149 668 110 q 715 238 715 188 l 715 610 q 704 757 715 706 q 678 833 693 808 q 649 861 664 857 q 625 865 633 865 q 617 876 618 865 q 625 886 617 886 l 846 886 q 852 876 851 886 q 846 865 853 865 q 819 860 836 865 q 786 822 803 854 q 758 719 769 789 q 746 521 746 649 l 746 238 z "},"V":{"ha":1042,"x_min":14,"x_max":1029,"o":"m 757 504 q 826 702 808 631 q 841 809 843 774 q 826 853 839 844 q 804 861 813 861 q 801 872 797 863 q 813 882 804 882 l 1024 882 q 1026 872 1029 882 q 1015 861 1022 863 q 984 850 1003 860 q 936 803 965 840 q 868 694 907 767 q 778 497 829 622 l 586 28 q 557 6 579 13 q 510 -1 535 -1 q 461 6 483 -1 q 433 28 439 13 l 135 803 q 110 836 126 824 q 75 855 93 849 q 43 863 57 861 q 25 865 29 865 q 15 876 15 865 q 25 886 14 886 l 193 886 q 247 865 226 886 q 282 804 267 843 l 542 117 q 569 92 551 92 q 599 118 588 92 l 757 504 z "},"W":{"ha":838,"x_min":-274,"x_max":1086,"o":"m -153 803 q -178 836 -161 824 q -212 855 -194 849 q -244 863 -231 861 q -262 865 -258 865 q -273 876 -272 865 q -262 886 -274 886 l -81 886 q -34 865 -47 886 q -6 804 -21 843 l 254 117 q 282 92 264 92 q 311 118 300 92 l 396 325 l 208 803 q 183 836 200 824 q 149 855 167 849 q 117 863 131 861 q 99 865 103 865 q 88 876 89 865 q 99 886 88 886 l 281 886 q 327 865 314 886 q 356 804 340 843 l 472 494 q 541 693 524 619 q 557 804 558 767 q 542 852 556 842 q 521 863 529 863 q 517 874 514 864 q 528 883 519 883 l 739 883 q 742 874 744 883 q 732 863 739 864 q 697 844 719 861 q 644 783 675 826 q 572 663 613 739 q 482 471 531 588 l 615 117 q 633 99 622 99 q 656 113 644 99 q 682 161 667 126 l 822 507 q 875 649 857 590 q 899 748 893 708 q 903 811 906 788 q 893 847 900 835 q 877 862 886 858 q 863 865 868 865 q 858 876 856 865 q 869 886 861 886 l 1081 886 q 1083 876 1086 886 q 1074 865 1081 865 q 1044 854 1061 864 q 1001 810 1026 844 q 940 708 975 775 q 856 526 904 642 l 651 28 q 624 1 643 8 q 583 -7 606 -7 q 536 3 558 -7 q 507 28 514 13 l 406 290 l 299 28 q 269 6 292 13 q 222 -1 247 -1 q 174 6 196 -1 q 146 28 151 13 l -153 803 z "},"X":{"ha":836,"x_min":14,"x_max":813,"o":"m 675 99 q 720 40 694 60 q 801 21 746 21 q 811 10 813 21 q 797 0 810 0 l 614 0 q 553 23 575 0 q 513 82 531 46 l 404 294 q 353 159 372 213 q 324 74 333 106 q 316 31 315 43 q 325 19 317 19 q 328 9 332 19 q 317 -1 325 -1 l 106 -1 q 103 8 100 -1 q 114 19 107 18 q 151 35 125 21 q 215 85 178 50 q 298 178 253 119 q 389 328 343 238 l 164 771 q 124 825 146 806 q 81 853 101 844 q 44 864 60 863 q 25 865 29 865 q 15 876 14 865 q 28 886 15 886 l 224 886 q 278 863 261 886 q 313 804 294 840 l 479 481 q 551 672 526 597 q 583 789 575 746 q 588 848 592 832 q 576 864 585 864 q 572 875 569 865 q 583 885 575 885 l 794 885 q 797 875 800 885 q 788 864 794 865 q 747 844 775 863 q 678 780 718 826 q 591 655 639 733 q 493 454 543 576 l 675 99 z "},"Y":{"ha":1033,"x_min":14,"x_max":939,"o":"m 575 88 q 590 44 575 65 q 625 24 606 24 q 631 13 632 24 q 625 3 631 3 l 400 3 q 392 13 392 3 q 400 24 393 24 q 433 42 418 24 q 449 88 449 60 l 449 268 l 163 792 q 126 833 149 818 q 83 855 104 847 q 46 864 63 863 q 25 865 29 865 q 15 876 15 865 q 25 886 14 886 q 93 888 56 886 q 167 887 131 890 q 235 872 204 883 q 282 831 265 860 l 542 364 q 565 321 554 343 q 653 534 619 446 q 705 683 686 622 q 729 779 724 743 q 734 834 735 815 q 727 858 733 853 q 715 864 721 864 q 711 875 708 865 q 722 885 714 885 l 933 885 q 936 875 939 885 q 926 864 933 865 q 904 857 918 864 q 870 829 890 850 q 823 770 850 808 q 759 669 796 732 q 676 513 722 606 q 574 292 631 421 l 575 88 z "},"Z":{"ha":865,"x_min":8,"x_max":854,"o":"m 263 81 q 258 41 243 51 q 322 31 272 31 q 417 30 364 31 q 526 31 471 29 q 635 37 582 32 q 729 54 688 42 q 796 88 771 67 q 819 140 821 108 q 830 151 819 151 q 840 140 840 151 l 840 61 q 832 26 840 38 q 808 8 824 14 q 767 3 792 3 q 708 3 742 3 l 19 3 q 8 13 8 3 q 19 24 8 24 q 78 56 44 24 q 151 142 111 88 q 236 266 190 196 q 333 413 282 336 q 461 601 408 524 q 547 731 514 679 q 595 813 581 783 q 608 856 610 842 q 588 874 606 871 q 542 878 571 878 q 449 878 500 878 q 347 878 399 879 q 248 872 296 876 q 163 854 200 867 q 103 821 125 842 q 82 768 81 800 q 72 761 82 761 q 61 768 61 761 l 61 847 q 90 892 61 883 q 181 900 119 900 l 844 900 q 854 890 854 900 q 844 879 854 879 q 778 833 819 879 q 688 717 738 788 q 585 563 639 647 q 479 403 531 479 l 263 81 z "},".":{"ha":372,"x_min":122,"x_max":236,"o":"m 122 -3 q 139 38 122 21 q 179 54 156 54 q 219 38 203 54 q 236 -3 236 21 q 219 -43 236 -26 q 179 -60 203 -60 q 139 -43 156 -60 q 122 -3 122 -26 z "},"a":{"ha":682,"x_min":49,"x_max":657,"o":"m 538 0 q 509 1 522 0 q 485 8 496 1 q 469 30 475 15 q 464 72 464 44 l 464 106 q 367 23 424 49 q 254 -3 311 -3 q 177 10 214 -3 q 112 45 140 22 q 67 101 83 68 q 50 176 50 135 q 81 277 50 239 q 157 339 111 315 q 256 375 203 363 q 356 398 310 388 q 432 419 401 408 q 463 451 463 431 q 450 513 463 490 q 417 547 438 536 q 369 561 396 558 q 314 561 342 564 q 222 538 264 557 q 148 488 179 518 q 97 419 117 457 q 69 339 76 381 q 58 324 67 324 q 49 339 49 324 l 49 439 q 68 486 49 463 q 123 531 88 510 q 207 566 158 551 q 314 583 256 581 q 421 578 371 586 q 508 551 471 571 q 567 499 546 531 q 589 424 589 468 l 589 83 q 596 49 589 61 q 613 30 603 36 q 633 22 622 24 q 649 21 643 21 q 656 10 656 21 q 649 0 657 0 l 538 0 m 464 414 q 424 390 450 400 q 365 369 397 379 q 301 346 333 358 q 241 313 268 333 q 196 263 214 293 q 178 189 178 233 q 189 128 178 154 q 219 84 200 101 q 263 58 239 67 q 314 50 288 50 q 369 60 342 50 q 417 88 396 69 q 451 135 438 107 q 464 200 464 163 l 464 414 z "},"b":{"ha":688,"x_min":11,"x_max":675,"o":"m 321 1 l 267 1 l 158 0 l 104 0 l 28 0 q 21 10 21 0 q 28 21 21 21 q 63 40 49 21 q 76 111 76 58 l 76 700 q 69 742 76 725 q 47 758 61 758 q 31 753 38 758 q 17 756 22 747 q 19 771 11 765 l 193 883 q 201 872 201 888 l 201 585 l 325 585 q 522 542 444 585 q 638 433 600 499 q 674 293 675 368 q 632 153 672 218 q 513 44 592 88 q 321 1 435 1 m 201 142 q 203 83 201 107 q 217 47 206 60 q 252 28 228 33 q 319 22 276 22 q 442 63 392 22 q 519 163 492 103 q 548 294 546 224 q 526 424 550 364 q 450 525 501 485 q 319 565 399 565 q 271 565 293 565 q 234 560 249 565 q 211 540 219 554 q 203 500 203 526 l 201 142 z "},"c":{"ha":618,"x_min":13,"x_max":599,"o":"m 583 81 q 483 15 543 36 q 356 -7 422 -7 q 234 10 294 -7 q 125 63 174 28 q 46 149 76 97 q 14 267 15 200 q 44 398 13 340 q 127 495 75 456 q 245 555 179 535 q 379 575 311 575 q 458 567 419 575 q 532 544 497 560 q 565 519 554 535 q 578 483 575 504 q 581 438 582 463 q 576 381 579 413 q 567 363 575 363 q 554 382 558 363 q 486 511 538 469 q 372 553 435 553 q 288 534 331 553 q 213 478 246 515 q 159 389 179 442 q 139 267 139 336 q 158 161 139 207 q 210 85 178 115 q 285 40 243 56 q 372 25 326 25 q 471 42 421 25 q 565 94 521 60 q 591 102 583 108 q 583 81 599 96 z "},"d":{"ha":660,"x_min":13,"x_max":656,"o":"m 572 0 q 465 1 518 0 q 357 1 411 1 q 170 44 246 1 q 56 153 94 88 q 15 293 17 218 q 49 433 13 368 q 162 542 86 499 q 353 585 238 585 l 475 585 l 475 719 q 453 761 475 761 q 431 753 443 761 q 417 756 422 747 q 419 771 411 765 l 593 883 q 601 872 601 888 l 601 724 l 600 111 q 614 40 600 58 q 649 22 628 22 q 656 11 656 22 q 649 0 656 0 l 572 0 m 475 500 q 450 553 474 540 q 372 565 426 565 q 246 525 296 565 q 172 424 196 485 q 147 294 147 364 q 172 163 147 224 q 243 63 196 103 q 358 22 290 22 q 419 26 396 22 q 454 43 442 31 q 471 78 467 56 q 475 139 475 101 l 475 500 z "},"e":{"ha":635,"x_min":17,"x_max":594,"o":"m 585 125 q 487 28 553 60 q 343 -3 421 -3 q 230 15 286 -3 q 128 65 174 32 q 54 149 83 99 q 21 267 25 200 q 42 403 17 344 q 110 501 67 461 q 210 560 154 540 q 324 581 267 581 q 420 565 374 581 q 503 519 467 550 q 560 442 539 488 q 581 333 582 396 l 581 311 l 147 311 q 167 188 149 242 q 217 99 186 135 q 288 44 249 63 q 371 26 328 26 q 476 53 424 26 q 568 139 528 81 q 588 151 581 158 q 585 125 594 144 m 467 332 q 453 431 467 389 q 418 499 440 472 q 368 540 396 526 q 311 554 340 554 q 252 540 281 554 q 201 499 224 526 q 163 429 178 471 q 149 332 149 388 l 467 332 z "},"f":{"ha":483,"x_min":-24,"x_max":469,"o":"m -15 538 q -23 547 -24 538 q -15 558 -22 557 q 8 560 -4 560 q 32 566 21 561 q 51 581 43 571 q 61 613 58 592 q 83 713 68 664 q 125 801 97 763 q 194 864 153 840 q 297 888 236 888 q 373 872 340 888 q 427 834 406 857 q 459 785 449 811 q 469 735 469 758 l 469 632 q 461 619 469 619 q 450 632 453 619 q 431 715 443 672 q 401 792 419 757 q 358 851 383 828 q 299 874 333 874 q 258 860 278 874 q 221 811 238 846 q 194 717 204 776 q 182 564 183 657 l 244 564 q 256 553 256 564 q 244 543 256 543 l 182 543 l 183 85 q 199 41 183 61 q 233 21 214 21 q 240 10 240 21 q 233 0 239 0 l 8 0 q 1 10 0 0 q 8 21 1 21 q 42 40 26 21 q 57 86 57 58 l 57 538 l -15 538 z "},"g":{"ha":700,"x_min":14,"x_max":690,"o":"m 435 -222 q 530 -160 494 -197 q 574 -90 565 -124 q 561 -31 582 -56 q 488 -7 540 -7 q 436 -12 463 -7 q 376 -26 407 -18 q 313 -41 344 -33 q 249 -53 281 -49 q 188 -58 217 -58 q 143 -54 164 -58 q 67 -11 88 -42 q 56 54 47 19 q 96 120 64 89 q 175 165 128 151 q 113 194 142 175 q 61 238 83 213 q 26 294 39 263 q 14 363 14 326 q 34 448 14 408 q 92 517 54 488 q 183 564 129 547 q 301 581 236 581 q 367 574 336 581 q 425 560 397 568 l 428 558 q 484 607 451 590 q 553 624 517 624 q 629 601 593 624 q 688 531 665 579 q 686 516 690 522 q 671 521 682 510 q 601 567 642 550 q 525 583 561 583 q 481 576 501 583 q 446 553 460 568 q 536 490 503 529 q 581 404 569 450 q 580 313 592 358 q 533 229 568 267 q 440 168 497 192 q 301 144 382 144 q 254 146 274 144 q 215 154 235 147 q 184 147 206 157 q 146 122 163 136 q 126 92 129 107 q 153 72 124 78 q 203 68 176 68 q 296 76 247 68 q 393 89 344 83 q 518 79 469 97 q 592 28 567 61 q 621 -50 617 -6 q 612 -140 625 -94 q 572 -227 599 -186 q 507 -296 544 -268 q 410 -344 463 -328 q 301 -360 357 -360 q 196 -344 247 -360 q 106 -297 144 -328 q 44 -218 67 -265 q 26 -107 22 -171 q 34 -90 26 -92 q 43 -101 42 -89 q 63 -174 46 -144 q 109 -223 81 -204 q 174 -251 138 -242 q 253 -260 211 -260 q 346 -250 299 -260 q 435 -222 393 -240 m 301 556 q 211 527 247 556 q 158 456 175 499 q 140 363 140 413 q 158 269 140 313 q 213 198 176 226 q 301 169 249 169 q 390 198 354 169 q 445 269 426 226 q 465 363 464 313 q 448 456 465 413 q 394 527 431 499 q 301 556 357 556 z "},"h":{"ha":769,"x_min":-7,"x_max":715,"o":"m 658 85 q 674 41 658 61 q 708 21 689 21 q 715 10 715 21 q 708 0 714 0 l 483 0 q 476 10 475 0 q 483 21 476 21 q 517 40 501 21 q 533 86 533 58 l 533 329 q 519 426 533 386 q 481 494 504 467 q 426 533 457 521 q 364 546 396 546 q 298 533 331 546 q 240 493 265 519 q 199 429 215 467 q 183 343 183 392 l 183 85 q 199 42 183 63 q 233 21 214 21 q 240 10 240 21 q 233 0 239 0 l 8 0 q 1 10 0 0 q 8 21 1 21 q 42 40 26 21 q 58 86 58 58 l 58 697 q 51 739 58 722 q 29 756 43 756 q 13 750 19 756 q -1 753 4 744 q 1 768 -7 763 l 175 881 q 183 869 183 885 l 183 478 q 221 521 197 501 q 274 554 244 540 q 339 575 304 568 q 408 582 374 582 q 500 568 456 582 q 580 524 544 554 q 637 447 615 494 q 658 329 658 399 l 658 85 z "},"i":{"ha":272,"x_min":13,"x_max":258,"o":"m 136 588 q 83 609 101 588 q 65 657 65 631 q 83 705 65 683 q 136 726 101 726 q 188 705 171 726 q 206 657 206 683 q 188 609 206 631 q 136 588 171 588 m 76 397 q 74 432 76 413 q 67 468 72 451 q 54 494 63 485 q 33 500 46 504 q 19 506 25 497 q 22 518 13 515 l 181 576 q 197 578 193 581 q 201 569 201 576 l 201 463 l 201 85 q 217 41 201 61 q 251 21 232 21 q 258 10 258 21 q 251 0 257 0 l 26 0 q 19 10 18 0 q 26 21 19 21 q 60 39 44 21 q 75 85 75 57 l 76 397 z "},"j":{"ha":267,"x_min":-164,"x_max":254,"o":"m 136 572 q 83 594 101 572 q 65 642 65 615 q 83 690 65 668 q 136 711 101 711 q 188 690 171 711 q 206 642 206 668 q 188 594 206 615 q 136 572 171 572 m 72 478 q 60 524 72 506 q 24 542 47 542 q 16 552 17 542 q 24 563 15 563 l 249 563 q 254 552 254 563 q 249 542 254 542 q 211 524 225 542 q 197 478 197 506 l 196 42 q 172 -124 196 -61 q 111 -220 149 -186 q 26 -265 74 -254 q -69 -276 -22 -276 q -151 -272 -112 -276 q -163 -262 -162 -271 q -153 -251 -164 -253 q -37 -228 -81 -246 q 29 -177 6 -211 q 61 -90 53 -143 q 69 42 69 -36 l 72 478 z "},"k":{"ha":665,"x_min":11,"x_max":650,"o":"m 76 86 l 76 700 q 69 742 76 725 q 47 758 61 758 q 31 753 38 758 q 17 756 22 747 q 19 771 11 765 l 193 883 q 201 872 201 888 l 201 319 l 486 508 q 511 529 507 522 q 513 540 515 536 q 503 544 510 543 q 496 544 497 544 q 492 553 488 544 q 508 563 497 563 l 606 563 q 610 551 615 563 q 588 540 606 540 q 582 539 586 540 q 569 533 578 538 q 544 520 560 529 q 504 494 529 511 l 338 382 l 554 83 q 585 47 571 60 q 611 29 600 35 q 630 22 622 24 q 642 21 638 21 q 650 10 650 19 q 642 0 650 0 l 418 0 q 408 9 410 0 q 418 21 407 18 q 426 28 425 24 q 419 43 426 32 l 239 311 l 201 286 l 201 85 q 217 41 201 61 q 251 21 232 21 q 258 10 258 21 q 251 0 257 0 l 26 0 q 19 10 18 0 q 26 21 19 21 q 60 40 44 21 q 75 86 75 58 l 76 86 z "},"l":{"ha":274,"x_min":13,"x_max":260,"o":"m 76 696 q 74 735 76 715 q 67 769 72 754 q 54 794 63 785 q 33 799 46 803 q 18 805 24 796 q 22 817 13 814 l 181 875 q 201 868 201 882 l 201 738 q 201 566 201 644 q 202 411 201 488 q 203 256 203 335 q 203 85 203 178 q 218 42 203 63 q 253 21 233 21 q 259 10 260 21 q 253 0 258 0 l 28 0 q 20 10 19 0 q 28 21 21 21 q 61 40 46 21 q 76 86 76 58 l 76 696 z "},"m":{"ha":1154,"x_min":10,"x_max":1140,"o":"m 619 85 q 635 42 619 63 q 669 21 650 21 q 676 10 676 21 q 669 0 675 0 l 444 0 q 437 10 436 0 q 444 21 438 21 q 478 40 463 21 q 494 86 494 58 l 494 339 q 482 430 494 392 q 449 493 469 468 q 401 531 428 518 q 347 543 375 543 q 292 531 319 543 q 244 495 265 519 q 211 435 224 471 q 199 353 199 400 l 199 85 q 215 42 199 63 q 250 21 231 21 q 256 10 257 21 q 250 0 256 0 l 25 0 q 17 10 17 0 q 25 21 18 21 q 58 40 43 21 q 74 86 74 58 l 74 399 q 72 433 74 414 q 65 469 69 453 q 51 496 60 486 q 31 501 43 506 q 16 508 22 499 q 19 519 10 517 l 178 578 q 199 571 199 585 l 199 478 q 278 556 225 526 q 392 585 331 585 q 511 550 454 585 q 600 436 568 515 q 632 495 608 468 q 690 542 656 522 q 765 572 724 561 q 847 583 806 583 q 933 569 892 583 q 1008 526 975 556 q 1062 447 1042 496 q 1082 329 1082 399 l 1083 85 q 1099 42 1083 63 q 1133 21 1114 21 q 1140 10 1140 21 q 1133 0 1139 0 l 908 0 q 901 10 900 0 q 908 21 901 21 q 942 40 926 21 q 957 86 957 58 l 957 329 q 943 426 957 385 q 906 494 929 467 q 854 534 883 521 q 794 547 825 547 q 731 533 763 547 q 675 492 700 519 q 635 423 650 464 q 619 329 619 382 l 619 85 z "},"n":{"ha":771,"x_min":7,"x_max":729,"o":"m 196 478 q 283 552 219 524 q 419 581 346 581 q 512 567 467 581 q 592 524 557 554 q 650 446 628 493 q 672 329 672 399 l 672 85 q 688 41 672 61 q 722 21 703 21 q 728 10 729 21 q 722 0 728 0 l 497 0 q 490 10 489 0 q 497 21 490 21 q 531 40 515 21 q 547 86 547 58 l 547 339 q 532 433 547 393 q 492 500 517 474 q 437 540 468 526 q 372 553 406 553 q 307 540 339 553 q 251 503 275 528 q 211 440 226 478 q 196 353 196 403 l 196 85 q 212 42 196 63 q 247 21 228 21 q 253 10 254 21 q 247 0 253 0 l 22 0 q 15 10 14 0 q 22 21 15 21 q 56 40 40 21 q 71 86 71 58 l 71 396 q 69 435 71 415 q 62 469 67 454 q 49 494 57 485 q 28 499 40 503 q 13 505 19 496 q 17 517 7 514 l 175 575 q 196 568 196 582 l 196 478 z "},"o":{"ha":664,"x_min":14,"x_max":649,"o":"m 338 1 q 157 44 229 1 q 49 151 85 88 q 14 291 14 215 q 50 431 14 367 q 158 538 86 494 q 338 581 231 581 q 510 538 442 581 q 614 431 579 494 q 649 291 649 367 q 614 151 649 215 q 510 44 579 88 q 338 1 442 1 m 335 553 q 225 514 268 553 q 161 417 182 475 q 141 291 140 358 q 164 165 142 224 q 229 68 186 107 q 335 29 272 29 q 439 68 397 29 q 501 165 481 107 q 523 291 522 224 q 503 417 524 358 q 441 514 483 475 q 335 553 399 553 z "},"p":{"ha":679,"x_min":14,"x_max":667,"o":"m 200 -256 q 216 -301 200 -279 q 251 -322 232 -322 q 258 -333 258 -322 q 251 -343 257 -343 l 26 -343 q 19 -333 18 -343 q 26 -322 19 -322 q 60 -303 44 -322 q 75 -257 75 -285 l 75 468 q 65 520 75 496 q 26 546 56 544 q 15 556 15 546 q 26 567 14 567 l 317 567 q 514 525 436 567 q 629 422 592 483 q 665 288 667 360 q 624 153 664 215 q 505 50 583 92 q 313 8 426 8 l 200 8 l 200 -256 m 200 29 l 311 29 q 433 67 383 29 q 510 163 483 106 q 540 288 538 221 q 517 413 542 356 q 442 509 493 471 q 311 547 390 547 q 264 547 285 547 q 228 542 243 547 q 207 522 214 536 q 200 482 200 508 l 200 29 z "},"q":{"ha":682,"x_min":13,"x_max":669,"o":"m 486 4 l 374 4 q 214 29 281 4 q 103 94 147 54 q 39 183 60 133 q 15 282 18 232 q 40 408 13 354 q 114 497 68 461 q 218 551 160 533 q 332 569 276 569 q 414 559 375 569 q 481 526 453 549 q 521 511 500 511 q 565 530 547 511 q 590 563 583 549 q 603 569 594 574 q 611 554 611 565 l 611 -258 q 627 -303 611 -282 q 663 -325 643 -325 q 669 -335 669 -325 q 663 -346 668 -346 l 438 -346 q 430 -335 429 -346 q 438 -325 431 -325 q 471 -306 456 -325 q 486 -260 486 -287 l 486 4 m 486 436 q 475 479 486 460 q 446 512 464 499 q 403 532 428 525 q 353 539 379 539 q 278 524 315 539 q 210 479 240 510 q 160 400 179 449 q 142 282 140 351 q 152 198 142 243 q 189 114 163 153 q 260 50 215 75 q 375 25 304 25 l 486 25 l 486 436 z "},"r":{"ha":582,"x_min":10,"x_max":568,"o":"m 74 378 q 72 415 74 393 q 65 455 69 436 q 51 486 60 474 q 31 494 43 499 q 15 501 21 492 q 19 513 10 510 l 178 571 q 199 564 199 578 l 199 417 q 249 494 219 463 q 310 544 278 525 q 377 570 343 563 q 443 578 411 578 q 532 561 496 578 q 568 522 568 544 l 568 436 q 560 421 568 425 q 549 435 553 417 q 501 485 542 467 q 407 503 460 503 q 333 493 371 503 q 266 461 296 483 q 217 405 236 439 q 199 322 199 371 l 199 88 q 215 42 199 64 q 250 21 231 21 q 256 10 257 21 q 250 0 256 0 l 25 0 q 17 10 17 0 q 25 21 18 21 q 58 40 43 21 q 74 86 74 58 l 74 378 z "},"s":{"ha":582,"x_min":7,"x_max":575,"o":"m 58 189 q 92 122 64 153 q 159 70 119 92 q 245 37 199 49 q 333 25 292 25 q 399 35 369 25 q 443 64 428 44 q 458 120 464 92 q 429 165 453 149 q 363 196 406 182 q 271 224 319 210 q 173 253 222 238 q 86 292 124 269 q 28 344 49 314 q 17 415 7 374 q 60 497 26 464 q 138 549 93 529 q 231 577 182 568 q 324 586 281 586 q 472 563 408 586 q 506 540 494 554 q 523 506 518 526 q 528 460 528 486 q 528 403 528 435 q 519 385 528 385 q 506 403 513 385 q 465 468 496 440 q 392 513 433 496 q 306 538 351 531 q 219 542 260 544 q 144 520 174 538 q 114 471 114 503 q 151 409 115 433 q 241 366 188 385 q 355 331 294 347 q 465 291 415 314 q 545 235 515 268 q 565 151 575 203 q 526 75 557 107 q 451 23 496 43 q 354 -6 407 3 q 250 -15 301 -15 q 168 -10 207 -15 q 100 6 129 -4 q 53 32 71 17 q 36 65 36 47 l 36 189 q 47 200 38 200 q 58 189 57 200 z "},"t":{"ha":479,"x_min":13,"x_max":465,"o":"m 83 543 l 28 543 q 14 553 15 543 q 28 564 13 564 q 79 583 53 564 q 128 630 106 603 q 169 688 151 657 q 193 742 186 718 q 206 753 197 754 q 214 740 214 751 l 214 564 l 318 564 q 325 553 325 564 q 318 543 325 543 l 213 543 l 213 275 q 235 126 213 178 q 292 50 257 74 q 369 22 326 26 q 456 18 413 18 q 465 8 464 18 q 456 -3 465 -3 q 372 -5 415 -4 q 288 1 329 -6 q 209 23 246 7 q 144 70 172 39 q 100 151 117 101 q 83 275 83 201 l 83 543 z "},"u":{"ha":732,"x_min":14,"x_max":717,"o":"m 71 476 q 56 523 71 504 q 22 542 40 542 q 15 552 15 542 q 22 563 14 563 l 124 563 q 158 562 144 563 q 181 554 172 561 q 192 529 189 547 q 196 475 196 511 l 196 253 q 210 156 196 197 q 247 88 224 115 q 299 49 269 61 q 360 36 329 36 q 423 49 392 36 q 479 89 454 63 q 519 153 504 115 q 535 239 535 190 l 535 476 q 519 523 535 504 q 486 542 504 542 q 478 552 479 542 q 486 563 478 563 l 589 563 q 649 539 639 563 q 660 475 660 515 l 660 115 q 674 42 660 63 q 710 22 689 22 q 717 12 717 22 q 710 1 717 1 l 586 1 q 556 9 571 1 q 542 53 542 17 l 542 104 q 437 34 501 60 q 304 8 372 8 q 217 22 258 8 q 142 63 175 35 q 90 138 110 92 q 71 247 71 183 l 71 476 z "},"v":{"ha":771,"x_min":8,"x_max":751,"o":"m 129 478 q 103 511 121 499 q 69 530 86 524 q 38 538 51 536 q 19 540 24 540 q 9 551 10 540 q 19 561 8 561 l 326 561 q 338 551 338 561 q 326 540 338 540 q 313 540 324 540 q 290 533 301 539 q 274 515 279 528 q 276 479 268 503 l 440 49 l 613 499 q 614 519 617 511 q 603 531 611 526 q 584 538 594 536 q 564 540 574 540 q 553 551 553 540 q 564 561 553 561 l 742 561 q 751 551 751 561 q 742 540 751 540 q 724 540 738 540 q 695 535 711 539 q 664 520 679 531 q 640 490 649 510 l 450 0 l 332 0 l 129 478 z "},"w":{"ha":1056,"x_min":22,"x_max":1043,"o":"m 132 482 q 111 517 126 504 q 81 535 96 529 q 52 543 65 542 q 35 544 39 544 q 23 555 24 544 q 35 565 22 565 l 322 565 q 334 555 333 565 q 322 544 335 544 q 308 544 319 544 q 285 538 296 543 q 267 521 274 533 q 267 483 261 508 l 376 49 q 411 157 393 110 q 447 249 429 204 q 481 341 465 294 q 511 447 497 388 q 508 483 515 463 q 494 521 500 503 q 492 551 489 539 q 522 564 496 564 l 690 564 q 702 553 701 564 q 690 543 703 543 q 676 541 688 543 q 652 531 664 539 q 634 510 640 524 q 635 471 628 496 l 758 49 l 888 501 q 875 535 894 526 q 833 543 856 543 q 822 553 822 543 q 833 564 822 564 l 1032 564 q 1043 553 1043 564 q 1032 543 1043 543 q 1012 543 1028 543 q 977 539 996 543 q 942 524 958 535 q 918 493 925 514 l 775 0 l 642 0 l 528 388 l 394 0 l 263 0 l 132 482 z "},"x":{"ha":703,"x_min":8,"x_max":697,"o":"m 563 94 q 602 54 582 69 q 640 32 622 39 q 669 23 657 25 q 685 21 682 21 q 696 10 694 21 q 686 0 697 0 l 379 0 q 367 10 368 0 q 378 21 367 21 q 394 23 381 21 q 418 31 407 25 q 433 49 429 38 q 422 82 438 61 l 296 254 l 169 63 q 165 43 161 51 q 178 30 169 35 q 200 22 188 25 q 222 19 213 19 q 235 9 233 19 q 225 -1 236 -1 l 47 -1 q 36 9 38 -1 q 44 19 35 19 q 58 22 47 19 q 81 31 68 25 q 108 45 94 36 q 129 68 121 54 l 275 286 l 138 479 q 105 510 124 499 q 69 529 86 522 q 38 539 51 536 q 21 542 25 542 q 10 552 11 542 q 19 563 8 563 l 326 563 q 338 552 338 563 q 328 542 339 542 q 313 540 325 542 q 288 533 300 539 q 273 514 276 526 q 285 481 269 501 l 357 383 l 431 496 q 438 519 439 510 q 428 533 436 528 q 408 540 419 538 q 386 542 397 542 q 374 552 375 542 q 385 563 374 563 l 563 563 q 573 552 572 563 q 564 542 574 542 q 549 540 560 542 q 524 533 538 539 q 494 518 510 528 q 468 492 479 508 l 376 354 l 563 94 z "},"y":{"ha":897,"x_min":0,"x_max":885,"o":"m 382 -136 q 384 -87 386 -117 q 376 -25 382 -57 q 361 37 369 7 q 346 86 353 67 l 208 481 q 186 517 200 504 q 158 535 172 529 q 131 542 143 542 q 115 543 119 543 q 109 553 110 543 q 115 564 108 564 l 369 564 q 376 553 376 564 q 369 543 376 543 q 358 542 367 543 q 342 536 350 542 q 331 519 335 531 q 335 489 328 508 q 369 392 353 435 q 400 307 385 349 q 432 222 415 265 q 467 124 449 178 q 494 72 483 72 q 533 124 506 72 l 739 499 q 746 521 747 513 q 740 534 744 529 q 728 540 735 539 q 718 542 721 542 q 713 552 713 542 q 718 563 713 563 l 879 563 q 885 552 885 563 q 879 542 885 542 q 862 541 875 542 q 832 535 849 540 q 798 520 815 531 q 769 490 781 510 l 504 10 q 449 -92 479 -37 q 379 -197 418 -147 q 290 -287 340 -247 q 176 -343 240 -326 q 83 -358 119 -358 q 44 -343 50 -358 l 4 -243 q 9 -227 0 -232 q 25 -236 18 -222 q 49 -272 33 -254 q 84 -302 64 -289 q 126 -321 104 -315 q 171 -322 149 -326 q 252 -291 215 -314 q 316 -240 289 -268 q 360 -184 343 -212 q 382 -136 376 -156 z "},"z":{"ha":661,"x_min":15,"x_max":647,"o":"m 22 0 q 15 9 15 0 q 22 21 15 18 q 65 52 36 25 q 128 120 93 79 q 206 212 164 161 q 287 313 247 263 q 363 412 326 364 q 426 494 400 460 q 440 524 442 514 q 428 539 439 535 q 401 544 418 543 q 368 544 385 544 q 285 544 333 544 q 194 536 238 544 q 122 508 151 528 q 90 451 92 489 q 81 438 90 439 q 72 451 72 436 l 72 531 q 86 559 72 553 q 149 565 100 565 l 639 565 q 647 557 647 565 q 639 546 646 549 q 610 521 632 544 q 557 460 588 497 q 489 375 526 422 q 413 278 451 328 q 338 180 375 228 q 272 93 301 132 q 254 63 261 76 q 249 41 247 50 q 263 26 250 32 q 304 21 276 21 q 409 19 357 21 q 501 26 461 18 q 567 58 542 35 q 590 131 592 82 q 600 143 590 143 q 610 131 610 143 l 610 53 q 601 15 610 29 q 553 0 593 0 l 22 0 z "}}}
